<svg width="40" height="40" viewBox="0 0 40 40" fill="none" xmlns="http://www.w3.org/2000/svg">
<path d="M18 11H12C11.7348 11 11.4804 11.1054 11.2929 11.2929C11.1054 11.4804 11 11.7348 11 12V18C11 18.2652 11.1054 18.5196 11.2929 18.7071C11.4804 18.8946 11.7348 19 12 19H18C18.2652 19 18.5196 18.8946 18.7071 18.7071C18.8946 18.5196 19 18.2652 19 18V12C19 11.7348 18.8946 11.4804 18.7071 11.2929C18.5196 11.1054 18.2652 11 18 11ZM17 17H13V13H17V17ZM22 19H28C28.2652 19 28.5196 18.8946 28.7071 18.7071C28.8946 18.5196 29 18.2652 29 18V12C29 11.7348 28.8946 11.4804 28.7071 11.2929C28.5196 11.1054 28.2652 11 28 11H22C21.7348 11 21.4804 11.1054 21.2929 11.2929C21.1054 11.4804 21 11.7348 21 12V18C21 18.2652 21.1054 18.5196 21.2929 18.7071C21.4804 18.8946 21.7348 19 22 19ZM23 13H27V17H23V13ZM11 28C11 28.2652 11.1054 28.5196 11.2929 28.7071C11.4804 28.8946 11.7348 29 12 29H18C18.2652 29 18.5196 28.8946 18.7071 28.7071C18.8946 28.5196 19 28.2652 19 28V22C19 21.7348 18.8946 21.4804 18.7071 21.2929C18.5196 21.1054 18.2652 21 18 21H12C11.7348 21 11.4804 21.1054 11.2929 21.2929C11.1054 21.4804 11 21.7348 11 22V28ZM13 23H17V27H13V23ZM21 28C21 28.2652 21.1054 28.5196 21.2929 28.7071C21.4804 28.8946 21.7348 29 22 29H28C28.2652 29 28.5196 28.8946 28.7071 28.7071C28.8946 28.5196 29 28.2652 29 28V22C29 21.7348 28.8946 21.4804 28.7071 21.2929C28.5196 21.1054 28.2652 21 28 21H22C21.7348 21 21.4804 21.1054 21.2929 21.2929C21.1054 21.4804 21 21.7348 21 22V28ZM23 23H27V27H23V23Z" fill="#32475C" fill-opacity="0.87"/>
</svg>
