<svg width="40" height="40" viewBox="0 0 40 40" fill="none" xmlns="http://www.w3.org/2000/svg">
<path d="M28.742 21.045C28.0643 21.225 27.3662 21.3161 26.665 21.316C24.53 21.316 22.525 20.486 21.019 18.98C20.0301 17.9854 19.3191 16.7489 18.9569 15.3938C18.5948 14.0387 18.5941 12.6124 18.955 11.257C19.0001 11.0875 18.9998 10.9092 18.9542 10.7399C18.9086 10.5706 18.8192 10.4162 18.6951 10.2923C18.571 10.1684 18.4165 10.0793 18.2471 10.034C18.0777 9.98866 17.8994 9.98867 17.73 10.034C16.0332 10.4862 14.4851 11.3766 13.241 12.616C9.343 16.514 9.343 22.859 13.241 26.759C14.1675 27.6907 15.2696 28.4294 16.4835 28.9323C17.6974 29.4353 18.999 29.6924 20.313 29.689C21.6266 29.6927 22.9279 29.4357 24.1415 28.9329C25.3551 28.4302 26.4569 27.6916 27.383 26.76C28.6233 25.5157 29.5142 23.9668 29.966 22.269C30.0109 22.0996 30.0105 21.9214 29.9649 21.7522C29.9193 21.583 29.8301 21.4287 29.7062 21.3048C29.5823 21.1809 29.428 21.0917 29.2588 21.0461C29.0896 21.0005 28.9114 21.0001 28.742 21.045ZM25.97 25.346C25.229 26.0911 24.3475 26.6818 23.3767 27.084C22.4058 27.4862 21.3649 27.6918 20.314 27.689C19.2628 27.6916 18.2215 27.4858 17.2503 27.0835C16.2792 26.6811 15.3974 26.0903 14.656 25.345C11.538 22.226 11.538 17.15 14.656 14.031C15.2585 13.4292 15.9541 12.9284 16.716 12.548C16.6045 13.9871 16.805 15.4332 17.3037 16.7877C17.8025 18.1422 18.5878 19.373 19.606 20.396C20.6268 21.4174 21.8573 22.2049 23.2123 22.704C24.5673 23.2032 26.0146 23.4021 27.454 23.287C27.0715 24.0476 26.5706 24.7426 25.97 25.346Z" fill="#32475C" fill-opacity="0.87"/>
</svg>
