<svg width="20" height="20" viewBox="0 0 20 20" fill="none" xmlns="http://www.w3.org/2000/svg">
<path d="M14.4793 2.70848C14.7659 2.70848 15 2.47429 15 2.18759C15 1.90088 14.7659 1.66669 14.4793 1.66669H10.8344C9.39566 1.66669 8.23097 2.83183 8.23097 4.27118V16.5577L4.95351 13.279C4.7519 13.0773 4.41949 13.0773 4.21788 13.279C4.01626 13.4807 4.01626 13.8132 4.21788 14.0149L8.38343 18.1821C8.58504 18.3838 8.91746 18.3838 9.11907 18.1821L13.2846 14.0149C13.4862 13.8132 13.4862 13.4807 13.2846 13.279C13.083 13.0773 12.7506 13.0773 12.549 13.279L9.27153 16.5577V4.27118C9.27153 3.40857 9.97134 2.70848 10.8336 2.70848H14.4793Z" fill="#455573"/>
</svg>
