<svg width="20" height="20" viewBox="0 0 20 20" fill="none" xmlns="http://www.w3.org/2000/svg">
<path fill-rule="evenodd" clip-rule="evenodd" d="M17.2917 4.79165C17.2917 4.21581 16.8259 3.74998 16.2501 3.74998H3.75008C3.17425 3.74998 2.70841 4.21581 2.70841 4.79165V6.87498H17.2917V4.79165ZM2.70841 7.91665V15.2083C2.70841 15.7841 3.17425 16.25 3.75008 16.25H6.87508V7.91665H2.70841ZM7.91675 7.91665V16.25H9.28434C9.40706 16.6159 9.56721 16.9646 9.76023 17.2916H3.75008C2.60091 17.2916 1.66675 16.3575 1.66675 15.2083V4.79165C1.66675 3.64248 2.60091 2.70831 3.75008 2.70831H16.2501C17.3992 2.70831 18.3334 3.64248 18.3334 4.79165V10.5559C18.02 10.2513 17.6704 9.98366 17.2917 9.76013V7.91665H7.91675Z" fill="black"/>
<path d="M17.1126 14.0008C17.1126 13.1758 16.7846 12.3837 16.2012 11.8004C15.6179 11.217 14.8266 10.889 14.0008 10.889C13.175 10.889 12.3837 11.217 11.8004 11.8004C11.217 12.3837 10.889 13.175 10.889 14.0008C10.889 14.8266 11.217 15.6179 11.8004 16.2012C12.3837 16.7846 13.175 17.1126 14.0008 17.1126C14.8266 17.1126 15.6179 16.7846 16.2012 16.2012C16.7846 15.6179 17.1126 14.8266 17.1126 14.0008ZM10 14.0008C10 12.9398 10.4217 11.922 11.1714 11.1714C11.9212 10.4209 12.939 10 14.0008 10C15.0626 10 16.0796 10.4217 16.8294 11.1714C17.5799 11.922 18.0008 12.939 18.0008 14C18.0008 15.061 17.5791 16.0788 16.8294 16.8286C16.0788 17.5791 15.0618 18 14.0008 18C12.9398 18 11.922 17.5783 11.1722 16.8286C10.4217 16.078 10.0008 15.061 10.0008 14L10 14.0008ZM14.4457 12.2228V13.5567H15.7796C16.0244 13.5567 16.2244 13.7568 16.2244 14.0016C16.2244 14.2464 16.0244 14.4465 15.7796 14.4465H14.4457V15.7804C14.4457 16.0252 14.2456 16.2252 14.0008 16.2252C13.756 16.2252 13.5559 16.0252 13.5559 15.7804V14.4465H12.222C11.9772 14.4465 11.7772 14.2464 11.7772 14.0016C11.7772 13.7568 11.9772 13.5567 12.222 13.5567H13.5559V12.2228C13.5559 11.978 13.756 11.778 14.0008 11.778C14.2456 11.778 14.4457 11.978 14.4457 12.2228Z" fill="black"/>
</svg>
